<svg width="11" height="20" viewBox="0 0 11 20" fill="none" xmlns="http://www.w3.org/2000/svg">
<path d="M0.426921 1.73258L8.48662 10.0007L0.426921 18.2689C0.28263 18.4166 0.20185 18.6149 0.20185 18.8214C0.20185 19.0279 0.28263 19.2263 0.426921 19.374C0.497004 19.4455 0.580654 19.5023 0.672974 19.5411C0.765293 19.5799 0.864426 19.5999 0.964565 19.5999C1.0647 19.5999 1.16384 19.5799 1.25616 19.5411C1.34848 19.5023 1.43213 19.4455 1.50221 19.374L10.078 10.5781C10.2286 10.4236 10.3129 10.2165 10.3129 10.0007C10.3129 9.78504 10.2286 9.57787 10.078 9.4234L1.50386 0.627516C1.43373 0.555482 1.34987 0.498229 1.25725 0.459136C1.16462 0.420042 1.0651 0.399902 0.964564 0.399902C0.864027 0.399902 0.764508 0.420042 0.671882 0.459136C0.579256 0.498229 0.495401 0.555482 0.425266 0.627516C0.280975 0.775241 0.200195 0.97355 0.200195 1.18005C0.200195 1.38655 0.280975 1.58486 0.425266 1.73258H0.426921Z" fill="#363636"/>
</svg>
