<svg width="11" height="20" viewBox="0 0 11 20" fill="none" xmlns="http://www.w3.org/2000/svg">
<path d="M10.0861 1.73258L2.02645 10.0007L10.0861 18.2689C10.2304 18.4166 10.3112 18.6149 10.3112 18.8214C10.3112 19.0279 10.2304 19.2263 10.0861 19.374C10.0161 19.4455 9.93241 19.5023 9.84009 19.5411C9.74777 19.5799 9.64864 19.5999 9.5485 19.5999C9.44836 19.5999 9.34923 19.5799 9.25691 19.5411C9.16459 19.5023 9.08094 19.4455 9.01085 19.374L0.435023 10.5781C0.28446 10.4236 0.200195 10.2165 0.200195 10.0007C0.200195 9.78504 0.28446 9.57787 0.435023 9.4234L9.0092 0.627516C9.07934 0.555482 9.16319 0.498229 9.25582 0.459136C9.34844 0.420042 9.44796 0.399902 9.5485 0.399902C9.64904 0.399902 9.74856 0.420042 9.84118 0.459136C9.93381 0.498229 10.0177 0.555482 10.0878 0.627516C10.2321 0.775241 10.3129 0.97355 10.3129 1.18005C10.3129 1.38655 10.2321 1.58486 10.0878 1.73258H10.0861Z" fill="#C4C4C4"/>
</svg>
