<svg width="351" height="42" viewBox="0 0 351 42" fill="none" xmlns="http://www.w3.org/2000/svg">
<path d="M0.802 17H5.014V16.19L3.646 15.956C3.646 15.956 3.772 15.164 4.096 14.21L4.384 13.346H9.064L10 16.028L9.028 16.19V17H13.402V16.19L12.376 16.01L8.254 4.274L6.202 4.382L2.008 15.956L0.802 16.19V17ZM4.816 12.194L6.418 7.604C6.634 7.01 6.706 6.488 6.706 6.488H6.778C6.778 6.488 6.886 6.992 7.066 7.532L8.668 12.194H4.816ZM15.4617 17H19.8357V16.19L18.9717 15.956V12.95H19.9257L21.9957 16.28C22.3917 16.91 22.9137 17 23.7237 17H25.0917V16.19C24.8397 16.19 24.6777 16.1 24.4257 15.74L21.5637 11.672L23.8677 8.936L24.8217 8.81V8H21.2037V8.81L21.9597 8.972L20.0877 11.87H18.9717V9.044L19.7457 8.81V8H15.4437V8.81L16.5777 9.044V15.956L15.4617 16.19V17ZM34.3915 17.18C35.0035 17.18 35.5615 16.874 35.5615 16.874V16.046H35.5255C34.9315 16.046 34.6255 15.884 34.6255 15.272V10.916C34.6255 9.206 33.7975 7.82 31.1875 7.82C29.4955 7.82 28.0915 8.396 28.0915 8.396V9.458C28.0915 9.458 29.2795 9.17 30.1075 9.17C31.7275 9.17 32.2675 9.8 32.2675 11.042V12.014C31.7455 12.014 31.0975 12.032 30.4135 12.122C28.2895 12.374 27.2635 13.4 27.2635 14.966C27.2635 16.19 28.0915 17.216 29.8915 17.216C30.9355 17.216 31.7815 16.748 32.5375 16.118C32.7535 16.694 33.2215 17.18 34.3915 17.18ZM30.8995 15.614C30.0715 15.614 29.6215 15.182 29.6215 14.534C29.6215 13.742 30.1255 13.274 30.8455 13.13C31.7095 12.968 32.2315 13.094 32.2315 13.094V13.67C32.2315 14.714 32.2855 15.218 32.2855 15.218C32.2855 15.218 31.8715 15.614 30.8995 15.614ZM37.603 19.952H38.773L39.133 17H46.171L46.531 19.952H47.701L47.773 15.848H46.369L46.351 9.044L47.539 8.81V8H38.953V8.81L40.249 9.044C40.213 12.194 39.799 14.588 38.359 15.848H37.567L37.603 19.952ZM40.087 15.848C41.167 14.768 41.635 12.446 41.725 9.152H43.993V15.848H40.087ZM55.0183 17.18C57.1243 17.18 57.9883 16.442 57.9883 16.442V15.452C57.9883 15.452 57.0523 15.668 55.9723 15.668C53.6503 15.668 52.8043 14.408 52.7143 12.518H58.4563C58.5103 9.53 57.0883 7.82 54.4423 7.82C52.1743 7.82 50.2843 9.674 50.2843 12.662C50.2843 15.29 51.9583 17.18 55.0183 17.18ZM52.7503 11.294C52.8943 9.782 53.5423 8.99 54.4783 8.99C55.2883 8.99 55.9183 9.89 55.9183 11.15L52.7503 11.294ZM60.9979 17H64.6879V16.19L63.3919 15.902L63.5899 11.546C63.6259 10.592 63.5359 9.818 63.5359 9.818H63.6439C63.6439 9.818 63.8419 10.52 64.1479 11.168L66.5779 16.46H67.6399L70.1599 11.15C70.4299 10.574 70.6639 9.8 70.6639 9.8H70.7539C70.7539 9.8 70.6999 10.322 70.7359 11.078L70.9339 15.956L69.6019 16.19V17H74.1019V16.19L73.0039 15.956L72.6979 9.044L73.8679 8.81V8H70.2139L67.5859 13.67L65.1199 8H61.2859V8.81L62.4379 9.044L62.1319 15.902L60.9979 16.19V17ZM76.7457 17H80.1837L83.2797 11.564C83.7657 10.736 84.0357 9.944 84.0357 9.944H84.1077C84.1077 9.944 84.0177 10.736 84.0177 11.312V15.848L83.1537 16.19V17H87.5277V16.19L86.3757 15.848V9.044L87.5277 8.81V8H84.0357L80.9577 13.382C80.4357 14.318 80.1837 15.074 80.1837 15.074H80.1117C80.1117 15.074 80.2017 13.994 80.2017 13.274V9.044L81.1197 8.81V8H76.7457V8.81L77.8797 9.062V15.848L76.7457 16.19V17ZM90.9948 17.18C92.1648 17.18 92.8488 16.712 93.2808 16.01L94.7028 13.652H95.8368V15.974L95.0088 16.19V17H99.3828V16.19L98.2308 15.974V9.044L99.3828 8.81V8H94.5228C92.2728 8 90.7068 9.044 90.7068 10.88C90.7068 12.068 91.3908 13.004 92.7048 13.292L91.1028 15.398C90.5808 16.082 90.2928 16.226 89.7888 16.28V17C89.7888 17 90.1668 17.18 90.9948 17.18ZM94.9728 12.5C93.7308 12.5 93.1728 11.744 93.1728 10.754C93.1728 9.8 93.7488 9.152 94.9548 9.152H95.8368V12.5H94.9728ZM107.469 21.518H112.167V20.708L111.015 20.51V16.694C111.015 16.694 111.555 17.18 112.833 17.18C115.335 17.18 117.171 15.254 117.171 12.014C117.171 9.782 115.947 7.82 113.373 7.82C112.491 7.82 111.627 8.198 110.961 8.792L111.015 8.234L110.547 7.91L107.451 8.162V8.972L108.621 9.116V20.51L107.469 20.708V21.518ZM112.347 15.938C111.375 15.938 111.015 15.506 111.015 15.506V11.834C111.015 10.952 110.961 10.178 110.943 10.016C111.411 9.638 112.023 9.404 112.653 9.404C114.075 9.404 114.705 10.718 114.705 12.446C114.705 14.66 113.823 15.938 112.347 15.938ZM124.699 17.18C126.805 17.18 127.669 16.442 127.669 16.442V15.452C127.669 15.452 126.733 15.668 125.653 15.668C123.331 15.668 122.485 14.408 122.395 12.518H128.137C128.191 9.53 126.769 7.82 124.123 7.82C121.855 7.82 119.965 9.674 119.965 12.662C119.965 15.29 121.639 17.18 124.699 17.18ZM122.431 11.294C122.575 9.782 123.223 8.99 124.159 8.99C124.969 8.99 125.599 9.89 125.599 11.15L122.431 11.294ZM130.823 17H135.719V16.19L134.369 15.974V9.08L136.745 9.206L136.997 10.88H138.041L138.023 8H130.823V8.81L131.957 9.044V15.974L130.823 16.19V17ZM145.29 17.18C147.396 17.18 148.26 16.442 148.26 16.442V15.452C148.26 15.452 147.324 15.668 146.244 15.668C143.922 15.668 143.076 14.408 142.986 12.518H148.728C148.782 9.53 147.36 7.82 144.714 7.82C142.446 7.82 140.556 9.674 140.556 12.662C140.556 15.29 142.23 17.18 145.29 17.18ZM143.022 11.294C143.166 9.782 143.814 8.99 144.75 8.99C145.56 8.99 146.19 9.89 146.19 11.15L143.022 11.294ZM151.413 17H155.787V16.19L154.941 15.956V13.022H158.469V15.956L157.641 16.19V17H162.015V16.19L160.863 15.956V9.044L162.015 8.81V8H157.641V8.81L158.469 9.044V11.87H154.941V9.044L155.787 8.81V8H151.413V8.81L152.547 9.044V15.956L151.413 16.19V17ZM169.396 17.18C171.502 17.18 172.366 16.442 172.366 16.442V15.452C172.366 15.452 171.43 15.668 170.35 15.668C168.028 15.668 167.182 14.408 167.092 12.518H172.834C172.888 9.53 171.466 7.82 168.82 7.82C166.552 7.82 164.662 9.674 164.662 12.662C164.662 15.29 166.336 17.18 169.396 17.18ZM167.128 11.294C167.272 9.782 167.92 8.99 168.856 8.99C169.666 8.99 170.296 9.89 170.296 11.15L167.128 11.294ZM175.357 21.518H180.055V20.708L178.903 20.51V16.694C178.903 16.694 179.443 17.18 180.721 17.18C183.223 17.18 185.059 15.254 185.059 12.014C185.059 9.782 183.835 7.82 181.261 7.82C180.379 7.82 179.515 8.198 178.849 8.792L178.903 8.234L178.435 7.91L175.339 8.162V8.972L176.509 9.116V20.51L175.357 20.708V21.518ZM180.235 15.938C179.263 15.938 178.903 15.506 178.903 15.506V11.834C178.903 10.952 178.849 10.178 178.831 10.016C179.299 9.638 179.911 9.404 180.541 9.404C181.963 9.404 182.593 10.718 182.593 12.446C182.593 14.66 181.711 15.938 180.235 15.938ZM194.784 17.18C195.396 17.18 195.954 16.874 195.954 16.874V16.046H195.918C195.324 16.046 195.018 15.884 195.018 15.272V10.916C195.018 9.206 194.19 7.82 191.58 7.82C189.888 7.82 188.484 8.396 188.484 8.396V9.458C188.484 9.458 189.672 9.17 190.5 9.17C192.12 9.17 192.66 9.8 192.66 11.042V12.014C192.138 12.014 191.49 12.032 190.806 12.122C188.682 12.374 187.656 13.4 187.656 14.966C187.656 16.19 188.484 17.216 190.284 17.216C191.328 17.216 192.174 16.748 192.93 16.118C193.146 16.694 193.614 17.18 194.784 17.18ZM191.292 15.614C190.464 15.614 190.014 15.182 190.014 14.534C190.014 13.742 190.518 13.274 191.238 13.13C192.102 12.968 192.624 13.094 192.624 13.094V13.67C192.624 14.714 192.678 15.218 192.678 15.218C192.678 15.218 192.264 15.614 191.292 15.614ZM200.175 17H204.729V16.19L203.649 15.956V9.116L205.503 9.206L205.719 10.916H206.691L206.619 8H198.285L198.213 10.916H199.185L199.401 9.206L201.219 9.116V15.956L200.175 16.19V17ZM209.217 17H212.655L215.751 11.564C216.237 10.736 216.507 9.944 216.507 9.944H216.579C216.579 9.944 216.489 10.736 216.489 11.312V15.848L215.625 16.19V17H219.999V16.19L218.847 15.848V9.044L219.999 8.81V8H216.507L213.429 13.382C212.907 14.318 212.655 15.074 212.655 15.074H212.583C212.583 15.074 212.673 13.994 212.673 13.274V9.044L213.591 8.81V8H209.217V8.81L210.351 9.062V15.848L209.217 16.19V17ZM222.764 17H227.84C229.928 17 231.404 16.172 231.404 14.408C231.404 13.148 230.54 12.428 229.082 12.284V12.212C230.252 12.032 230.918 11.258 230.918 10.214C230.918 8.864 229.82 8 227.786 8H222.764V8.81L223.898 9.044V15.974L222.764 16.19V17ZM226.274 15.884V12.896H227.354C228.488 12.896 228.992 13.454 228.992 14.354C228.992 15.38 228.362 15.884 227.3 15.884H226.274ZM226.274 11.816V9.116H226.796C228.002 9.116 228.524 9.584 228.524 10.448C228.524 11.204 228.218 11.636 227.786 11.816H226.274ZM234.114 17H238.488V16.19L237.642 15.956V13.022H241.17V15.956L240.342 16.19V17H244.716V16.19L243.564 15.956V9.044L244.716 8.81V8H240.342V8.81L241.17 9.044V11.87H237.642V9.044L238.488 8.81V8H234.114V8.81L235.248 9.044V15.956L234.114 16.19V17ZM251.718 15.974C250.422 15.974 249.81 14.552 249.81 12.482C249.81 10.52 250.17 9.026 251.754 9.026C253.05 9.026 253.662 10.448 253.662 12.518C253.662 14.48 253.302 15.974 251.718 15.974ZM251.502 17.18C254.49 17.18 256.092 15.074 256.092 12.302C256.092 9.638 254.49 7.82 251.97 7.82C248.982 7.82 247.38 9.926 247.38 12.698C247.38 15.362 248.982 17.18 251.502 17.18ZM264.363 6.236C266.001 6.236 267.135 5.462 267.873 4.778L266.631 3.266C265.875 3.896 265.389 5.012 264.363 5.012C263.391 5.012 263.013 3.824 262.311 3.194L260.763 4.778C261.429 5.354 262.743 6.236 264.363 6.236ZM258.765 17H262.203L265.299 11.564C265.785 10.736 266.055 9.944 266.055 9.944H266.127C266.127 9.944 266.037 10.736 266.037 11.312V15.848L265.173 16.19V17H269.547V16.19L268.395 15.848V9.044L269.547 8.81V8H266.055L262.977 13.382C262.455 14.318 262.203 15.074 262.203 15.074H262.131C262.131 15.074 262.221 13.994 262.221 13.274V9.044L263.139 8.81V8H258.765V8.81L259.899 9.062V15.848L258.765 16.19V17ZM1.612 38H5.302V37.19L4.006 36.902L4.204 32.546C4.24 31.592 4.15 30.818 4.15 30.818H4.258C4.258 30.818 4.456 31.52 4.762 32.168L7.192 37.46H8.254L10.774 32.15C11.044 31.574 11.278 30.8 11.278 30.8H11.368C11.368 30.8 11.314 31.322 11.35 32.078L11.548 36.956L10.216 37.19V38H14.716V37.19L13.618 36.956L13.312 30.044L14.482 29.81V29H10.828L8.2 34.67L5.734 29H1.9V29.81L3.052 30.044L2.746 36.902L1.612 37.19V38ZM21.9883 38.18C24.0943 38.18 24.9583 37.442 24.9583 37.442V36.452C24.9583 36.452 24.0223 36.668 22.9423 36.668C20.6203 36.668 19.7743 35.408 19.6843 33.518H25.4263C25.4803 30.53 24.0583 28.82 21.4123 28.82C19.1443 28.82 17.2543 30.674 17.2543 33.662C17.2543 36.29 18.9283 38.18 21.9883 38.18ZM19.7203 32.294C19.8643 30.782 20.5123 29.99 21.4483 29.99C22.2583 29.99 22.8883 30.89 22.8883 32.15L19.7203 32.294ZM27.4485 40.952H28.6185L28.9785 38H36.0165L36.3765 40.952H37.5465L37.6185 36.848H36.2145L36.1965 30.044L37.3845 29.81V29H28.7985V29.81L30.0945 30.044C30.0585 33.194 29.6445 35.588 28.2045 36.848H27.4125L27.4485 40.952ZM29.9325 36.848C31.0125 35.768 31.4805 33.446 31.5705 30.152H33.8385V36.848H29.9325ZM40.2176 38H43.6556L46.7516 32.564C47.2376 31.736 47.5076 30.944 47.5076 30.944H47.5796C47.5796 30.944 47.4896 31.736 47.4896 32.312V36.848L46.6256 37.19V38H50.9996V37.19L49.8476 36.848V30.044L50.9996 29.81V29H47.5076L44.4296 34.382C43.9076 35.318 43.6556 36.074 43.6556 36.074H43.5836C43.5836 36.074 43.6736 34.994 43.6736 34.274V30.044L44.5916 29.81V29H40.2176V29.81L41.3516 30.062V36.848L40.2176 37.19V38ZM63.1428 40.952H64.3128L64.3488 36.848H62.9808V30.044L64.0968 29.81V29H59.7228V29.81L60.5868 30.044V36.848H57.2928V30.044L58.1028 29.81V29H53.7288V29.81L54.8988 30.044V36.956L53.7288 37.19V38H62.7828L63.1428 40.952ZM66.9603 38H70.3983L73.4943 32.564C73.9803 31.736 74.2503 30.944 74.2503 30.944H74.3223C74.3223 30.944 74.2323 31.736 74.2323 32.312V36.848L73.3683 37.19V38H77.7423V37.19L76.5903 36.848V30.044L77.7423 29.81V29H74.2503L71.1723 34.382C70.6503 35.318 70.3983 36.074 70.3983 36.074H70.3263C70.3263 36.074 70.4163 34.994 70.4163 34.274V30.044L71.3343 29.81V29H66.9603V29.81L68.0943 30.062V36.848L66.9603 37.19V38ZM80.5074 38H84.8814V37.19L84.0354 36.956V34.022H87.5634V36.956L86.7354 37.19V38H91.1094V37.19L89.9574 36.956V30.044L91.1094 29.81V29H86.7354V29.81L87.5634 30.044V32.87H84.0354V30.044L84.8814 29.81V29H80.5074V29.81L81.6414 30.044V36.956L80.5074 37.19V38ZM102.789 38H107.163V37.19L106.029 36.956V30.044L107.163 29.81V29H102.789V29.81L103.635 30.044V36.956L102.789 37.19V38ZM93.8792 38H98.5412C101.331 38 102.681 36.884 102.681 34.904C102.681 33.05 101.277 32.114 98.5772 32.114H97.3892V30.044L98.4512 29.81V29H93.8612V29.81L94.9952 30.062V36.956L93.8792 37.19V38ZM97.3892 36.884V33.23H98.3612C99.5852 33.23 100.161 33.968 100.161 35.066C100.161 36.164 99.5852 36.884 98.3432 36.884H97.3892ZM115.724 38H120.584C124.292 38 127.28 35.84 127.28 31.466C127.28 28.01 124.958 25.4 120.89 25.4H115.724V26.21L116.876 26.444V36.956L115.724 37.19V38ZM119.36 36.848V26.552H120.224C123.806 26.552 124.706 29 124.706 31.808C124.706 34.706 123.806 36.848 120.728 36.848H119.36ZM140.119 38.162C140.767 38.162 141.289 38 141.289 38V37.226C140.821 37.226 140.515 37.046 140.281 36.686L137.455 32.474C138.841 32.024 139.795 30.8 139.795 29.162C139.795 26.786 138.121 25.4 134.917 25.4H130.273V26.21L131.425 26.444V36.956L130.273 37.19V38H135.295V37.19L133.909 36.956V33.086H135.313L137.653 36.83C138.283 37.82 138.805 38.162 140.119 38.162ZM133.909 31.934V26.552H134.449C136.267 26.552 137.275 27.56 137.275 29.288C137.275 30.98 136.231 31.934 134.719 31.934H133.909ZM144.78 38.27C145.644 38.27 146.202 37.784 146.202 36.92C146.202 36.164 145.716 35.696 144.888 35.696C144.096 35.696 143.448 36.164 143.448 36.992C143.448 37.766 144.024 38.27 144.78 38.27ZM164.799 38.162C165.447 38.162 165.969 38 165.969 38V37.226C165.501 37.226 165.195 37.046 164.961 36.686L162.135 32.474C163.521 32.024 164.475 30.8 164.475 29.162C164.475 26.786 162.801 25.4 159.597 25.4H154.953V26.21L156.105 26.444V36.956L154.953 37.19V38H159.975V37.19L158.589 36.956V33.086H159.993L162.333 36.83C162.963 37.82 163.485 38.162 164.799 38.162ZM158.589 31.934V26.552H159.129C160.947 26.552 161.955 27.56 161.955 29.288C161.955 30.98 160.911 31.934 159.399 31.934H158.589ZM168.237 38H177.273L177.345 34.886H176.391L176.085 36.776L171.873 36.848V32.186L175.653 32.276V30.854L171.873 30.962V26.552L175.815 26.66L175.959 28.46H176.985L177.093 25.4H168.237V26.21L169.389 26.444V36.956L168.237 37.19V38ZM189.917 38.072L190.889 38V26.534L192.329 26.21V25.4H188.405V26.21L189.557 26.534V32.546C189.557 33.41 189.665 34.292 189.665 34.292L189.557 34.31C189.557 34.31 189.089 33.518 188.495 32.762L182.969 25.328L180.701 25.4V26.066L181.529 27.2V36.902L180.089 37.19V38H184.301V37.19L182.861 36.902V30.656C182.861 29.738 182.807 28.91 182.807 28.91L182.915 28.892C182.915 28.892 183.329 29.612 183.941 30.368L189.917 38.072ZM193.966 38H198.178V37.19L196.81 36.956C196.81 36.956 196.936 36.164 197.26 35.21L197.548 34.346H202.228L203.164 37.028L202.192 37.19V38H206.566V37.19L205.54 37.01L201.418 25.274L199.366 25.382L195.172 36.956L193.966 37.19V38ZM197.98 33.194L199.582 28.604C199.798 28.01 199.87 27.488 199.87 27.488H199.942C199.942 27.488 200.05 27.992 200.23 28.532L201.832 33.194H197.98ZM210.174 38H215.394V37.19L214.044 36.956V26.534L216.78 26.696L216.888 28.712H217.842L218.04 25.4H207.528L207.546 28.712H208.5L208.788 26.696L211.524 26.534V36.956L210.174 37.19V38ZM224.957 38H229.169V37.19L227.801 36.956C227.801 36.956 227.927 36.164 228.251 35.21L228.539 34.346H233.219L234.155 37.028L233.183 37.19V38H237.557V37.19L236.531 37.01L232.409 25.274L230.357 25.382L226.163 36.956L224.957 37.19V38ZM228.971 33.194L230.573 28.604C230.789 28.01 230.861 27.488 230.861 27.488H230.933C230.933 27.488 231.041 27.992 231.221 28.532L232.823 33.194H228.971ZM239.959 38H244.603V37.19L243.505 36.956V32.078H244.297L247.843 37.262C248.257 37.874 248.743 38 249.409 38H251.227V37.19C250.741 37.19 250.489 36.866 250.219 36.47L246.259 30.836L249.553 26.444L250.795 26.21V25.4H246.853V26.21L247.753 26.39L244.693 30.89H243.505V26.444L244.603 26.21V25.4H239.959V26.21L241.021 26.444V36.956L239.959 37.19V38ZM253.645 38H258.289V37.19L257.281 36.956V32.096H262.789V36.956L261.781 37.19V38H266.425V37.19L265.273 36.956V26.444L266.425 26.21V25.4H261.781V26.21L262.789 26.444V30.944H257.281V26.444L258.289 26.21V25.4H253.645V26.21L254.797 26.444V36.956L253.645 37.19V38ZM269.56 38H273.484V37.19L272.332 36.884V29.072C272.332 28.37 272.206 27.578 272.206 27.578H272.26C272.26 27.578 272.44 28.208 272.8 28.928L276.472 36.2H276.814L280.288 29.324C280.81 28.28 281.044 27.542 281.044 27.542H281.098C281.098 27.542 280.99 28.226 280.99 29.558V36.92L279.964 37.19V38H284.5V37.19L283.348 36.92V26.444L284.5 26.21V25.4H281.134L277.876 31.844C277.516 32.528 277.282 33.176 277.282 33.176H277.21C277.21 33.176 276.958 32.492 276.634 31.844L273.502 25.4H269.56V26.21L271 26.444V36.884L269.56 37.19V38ZM287.858 38H296.894L296.966 34.886H296.012L295.706 36.776L291.494 36.848V32.186L295.274 32.276V30.854L291.494 30.962V26.552L295.436 26.66L295.58 28.46H296.606L296.714 25.4H287.858V26.21L289.01 26.444V36.956L287.858 37.19V38ZM309.862 38.162C310.51 38.162 311.032 38 311.032 38V37.226C310.564 37.226 310.258 37.046 310.024 36.686L307.198 32.474C308.584 32.024 309.538 30.8 309.538 29.162C309.538 26.786 307.864 25.4 304.66 25.4H300.016V26.21L301.168 26.444V36.956L300.016 37.19V38H305.038V37.19L303.652 36.956V33.086H305.056L307.396 36.83C308.026 37.82 308.548 38.162 309.862 38.162ZM303.652 31.934V26.552H304.192C306.01 26.552 307.018 27.56 307.018 29.288C307.018 30.98 305.974 31.934 304.462 31.934H303.652ZM319.258 37.154C317.134 37.154 315.73 34.904 315.73 31.682C315.73 28.604 316.612 26.246 319.024 26.246C321.166 26.246 322.552 28.658 322.552 31.826C322.552 34.796 321.67 37.154 319.258 37.154ZM319.114 38.252C323.02 38.252 325.108 35.282 325.108 31.466C325.108 27.866 322.822 25.148 319.168 25.148C315.262 25.148 313.174 28.118 313.174 31.934C313.174 35.534 315.46 38.252 319.114 38.252ZM332.451 38.126L334.341 38.018L338.373 26.444L339.561 26.21V25.4H335.349V26.21L336.735 26.444C336.735 26.444 336.591 27.254 336.285 28.19L334.215 34.544C333.963 35.354 333.873 35.912 333.873 35.912H333.801C333.801 35.912 333.693 35.39 333.387 34.58L330.381 26.372L331.335 26.21V25.4H326.961V26.21L328.005 26.408L332.451 38.126ZM343.672 30.116H345.436V29.09H345.508L345.616 29.486C345.832 30.26 346.786 30.332 347.488 30.116V29.594C347.362 29.594 347.326 29.576 347.2 29.378L346.822 28.82C347.2 28.658 347.434 28.316 347.434 27.866C347.434 27.182 346.966 26.696 345.724 26.696H343.672V27.254L343.996 27.29V29.45L343.672 29.522V30.116ZM345.436 28.316V27.506H345.508C345.796 27.506 345.94 27.632 345.94 27.884C345.94 28.154 345.742 28.316 345.508 28.316H345.436ZM345.544 30.98C344.14 30.98 343.078 30.35 343.078 28.532C343.078 26.642 344.14 26.048 345.544 26.048C346.948 26.048 347.992 26.642 347.992 28.532C347.992 30.35 346.93 30.98 345.544 30.98ZM345.544 32.258C348.298 32.258 349.54 30.422 349.54 28.532C349.54 26.624 348.316 24.788 345.544 24.788C342.772 24.788 341.548 26.624 341.548 28.532C341.548 30.44 342.772 32.258 345.544 32.258Z" fill="black"/>
</svg>
